<svg viewBox="0 0 100 100" version="1.1" xmlns="http://www.w3.org/2000/svg" xmlns:xlink="http://www.w3.org/1999/xlink" xml:space="preserve"><path d="M81.25,0c5.165,0 9.581,1.834 13.249,5.501c3.667,3.668 5.501,8.084 5.501,13.249l0,62.5c0,5.165 -1.834,9.581 -5.501,13.249c-3.668,3.667 -8.084,5.501 -13.249,5.501l-12.24,0l0,-38.737l12.956,0l1.953,-15.104l-14.909,0l0,-9.636c0,-2.43 0.51,-4.253 1.53,-5.468c1.02,-1.216 3.006,-1.823 5.957,-1.823l7.943,-0.065l0,-13.477c-2.734,-0.39 -6.597,-0.586 -11.588,-0.586c-5.903,0 -10.623,1.736 -14.161,5.209c-3.537,3.472 -5.306,8.376 -5.306,14.713l0,11.133l-13.02,0l0,15.104l13.02,0l0,38.737l-34.635,0c-5.165,0 -9.581,-1.834 -13.249,-5.501c-3.667,-3.668 -5.501,-8.084 -5.501,-13.249l0,-62.5c0,-5.165 1.834,-9.581 5.501,-13.249c3.668,-3.667 8.084,-5.501 13.249,-5.501l62.5,0Z" /></svg>
