<svg viewBox="0 0 100 100" version="1.1" xmlns="http://www.w3.org/2000/svg" xmlns:xlink="http://www.w3.org/1999/xlink" xml:space="preserve"><path d="M88.672,84.505l0,-42.187l-8.789,0c0.868,2.734 1.302,5.577 1.302,8.528c0,5.469 -1.389,10.515 -4.167,15.137c-2.778,4.623 -6.554,8.279 -11.328,10.97c-4.774,2.691 -9.983,4.037 -15.625,4.037c-8.55,0 -15.864,-2.941 -21.94,-8.822c-6.076,-5.881 -9.115,-12.988 -9.115,-21.322c0,-2.951 0.434,-5.794 1.303,-8.528l-9.18,0l0,42.187c0,1.129 0.38,2.073 1.139,2.832c0.76,0.76 1.704,1.14 2.832,1.14l69.597,0c1.085,0 2.018,-0.38 2.799,-1.14c0.781,-0.759 1.172,-1.703 1.172,-2.832ZM70.182,49.805c0,-5.382 -1.964,-9.972 -5.892,-13.77c-3.928,-3.798 -8.669,-5.696 -14.225,-5.696c-5.512,0 -10.232,1.898 -14.16,5.696c-3.928,3.798 -5.892,8.388 -5.892,13.77c0,5.382 1.964,9.971 5.892,13.769c3.928,3.798 8.648,5.697 14.16,5.697c5.556,0 10.297,-1.899 14.225,-5.697c3.928,-3.798 5.892,-8.387 5.892,-13.769ZM88.672,26.367l0,-10.742c0,-1.215 -0.434,-2.268 -1.302,-3.158c-0.868,-0.889 -1.932,-1.334 -3.19,-1.334l-11.328,0c-1.259,0 -2.322,0.445 -3.191,1.334c-0.868,0.89 -1.302,1.943 -1.302,3.158l0,10.742c0,1.259 0.434,2.322 1.302,3.19c0.869,0.868 1.932,1.302 3.191,1.302l11.328,0c1.258,0 2.322,-0.434 3.19,-1.302c0.868,-0.868 1.302,-1.931 1.302,-3.19ZM100,12.826l0,74.349c0,3.515 -1.259,6.532 -3.776,9.049c-2.517,2.517 -5.534,3.776 -9.049,3.776l-74.349,0c-3.516,0 -6.533,-1.259 -9.05,-3.776c-2.517,-2.517 -3.776,-5.534 -3.776,-9.049l0,-74.349c0,-3.516 1.259,-6.533 3.776,-9.05c2.517,-2.517 5.534,-3.776 9.05,-3.776l74.349,0c3.515,0 6.532,1.259 9.049,3.776c2.517,2.517 3.776,5.534 3.776,9.05Z"/></svg>
