<svg viewBox="0 0 190 173" version="1.1" xmlns="http://www.w3.org/2000/svg"><g><path d="M18.621,172.59c2.659,-0.655 4.998,-2.033 6.977,-3.914l81.793,-82.169c-27.42,-27.542 -54.168,-55.779 -82.273,-82.618c-0.579,-0.498 -0.574,-0.495 -1.178,-0.966c-2.038,-1.426 -4.278,-2.413 -6.748,-2.771c-5.188,-0.752 -10.502,1.33 -13.815,5.409c-0.945,1.164 -1.715,2.469 -2.276,3.862c-0.635,1.575 -1.004,3.259 -1.084,4.956c-0.091,1.936 0.189,3.886 0.826,5.714c0.741,2.13 1.954,3.993 3.496,5.622l60.528,60.792c-20.334,20.427 -41.178,40.355 -60.993,61.292c-0.497,0.58 -0.492,0.576 -0.961,1.185c-1.279,1.843 -2.212,3.845 -2.638,6.06c-0.941,4.887 0.625,10.051 4.136,13.568c1.069,1.071 2.303,1.979 3.641,2.683c1.961,1.033 4.072,1.552 6.27,1.71c0.727,0.018 0.722,0.018 1.442,0c0.967,-0.07 1.914,-0.184 2.857,-0.415Z"/><path d="M101.229,172.59c2.66,-0.655 4.999,-2.033 6.978,-3.914l81.793,-82.169c-27.42,-27.542 -54.168,-55.779 -82.273,-82.618c-0.579,-0.498 -0.575,-0.495 -1.179,-0.966c-2.037,-1.426 -4.277,-2.413 -6.747,-2.771c-5.188,-0.752 -10.502,1.33 -13.815,5.409c-0.946,1.164 -1.715,2.469 -2.276,3.862c-0.636,1.575 -1.004,3.259 -1.085,4.956c-0.091,1.936 0.19,3.886 0.827,5.714c0.741,2.13 1.954,3.993 3.496,5.622l60.528,60.792c-20.334,20.427 -41.178,40.355 -60.993,61.292c-0.497,0.58 -0.493,0.576 -0.961,1.185c-1.28,1.843 -2.212,3.845 -2.639,6.06c-0.941,4.887 0.625,10.051 4.137,13.568c1.069,1.071 2.302,1.979 3.64,2.683c1.962,1.033 4.072,1.552 6.271,1.71c0.726,0.018 0.722,0.018 1.442,0c0.967,-0.07 1.914,-0.184 2.856,-0.415Z"/></g></svg>
