<svg viewBox="0 0 100 100" version="1.1" xmlns="http://www.w3.org/2000/svg" xmlns:xlink="http://www.w3.org/1999/xlink" xml:space="preserve" ><path d="M81.25,0c5.165,0 9.581,1.834 13.249,5.501c3.667,3.668 5.501,8.084 5.501,13.249l0,62.5c0,5.165 -1.834,9.581 -5.501,13.249c-3.668,3.667 -8.084,5.501 -13.249,5.501l-47.201,0c3.69,-5.295 6.033,-9.852 7.032,-13.672c0.39,-1.476 1.541,-6.011 3.45,-13.607c0.912,1.693 2.507,3.147 4.785,4.362c2.279,1.216 4.72,1.823 7.325,1.823c7.856,0 14.268,-3.201 19.238,-9.603c4.97,-6.402 7.454,-14.507 7.454,-24.316c0,-3.646 -0.759,-7.172 -2.278,-10.579c-1.519,-3.408 -3.614,-6.424 -6.283,-9.05c-2.669,-2.626 -5.979,-4.731 -9.928,-6.315c-3.95,-1.584 -8.225,-2.376 -12.826,-2.376c-4.514,0 -8.735,0.618 -12.663,1.855c-3.927,1.237 -7.248,2.897 -9.96,4.981c-2.713,2.083 -5.046,4.459 -6.999,7.129c-1.953,2.669 -3.396,5.447 -4.33,8.333c-0.933,2.886 -1.399,5.762 -1.399,8.626c0,4.427 0.857,8.333 2.571,11.719c1.715,3.385 4.243,5.772 7.585,7.161c0.564,0.217 1.074,0.217 1.53,0c0.456,-0.217 0.77,-0.629 0.944,-1.237c0.434,-1.909 0.759,-3.233 0.976,-3.971c0.261,-0.998 0.022,-1.91 -0.716,-2.734c-2.17,-2.691 -3.255,-5.947 -3.255,-9.766c0,-6.51 2.246,-12.077 6.738,-16.699c4.493,-4.623 10.363,-6.934 17.611,-6.934c6.467,0 11.513,1.758 15.137,5.274c3.624,3.515 5.436,8.073 5.436,13.672c0,7.291 -1.465,13.498 -4.395,18.619c-2.929,5.122 -6.694,7.683 -11.295,7.683c-2.604,0 -4.709,-0.944 -6.315,-2.832c-1.606,-1.888 -2.105,-4.135 -1.498,-6.739c0.348,-1.475 0.923,-3.483 1.726,-6.022c0.803,-2.539 1.443,-4.752 1.92,-6.64c0.478,-1.888 0.716,-3.505 0.716,-4.851c0,-2.126 -0.575,-3.895 -1.725,-5.306c-1.15,-1.41 -2.789,-2.116 -4.915,-2.116c-2.648,0 -4.894,1.227 -6.739,3.679c-1.844,2.452 -2.766,5.479 -2.766,9.082c0,3.125 0.52,5.751 1.562,7.877l-6.38,26.954c-1.042,4.34 -1.194,9.852 -0.456,16.536l-11.914,0c-5.165,0 -9.581,-1.834 -13.249,-5.501c-3.667,-3.668 -5.501,-8.084 -5.501,-13.249l0,-62.5c0,-5.165 1.834,-9.581 5.501,-13.249c3.668,-3.667 8.084,-5.501 13.249,-5.501l62.5,0Z"/></svg>
