<svg viewBox="0 0 108 173" version="1.1" xmlns="http://www.w3.org/2000/svg"><g><path d="M88.771,172.59c-2.66,-0.655 -4.999,-2.033 -6.978,-3.914l-81.793,-82.169c27.42,-27.542 54.168,-55.779 82.273,-82.618c0.579,-0.498 0.575,-0.495 1.179,-0.966c2.037,-1.426 4.277,-2.413 6.747,-2.771c5.188,-0.752 10.502,1.33 13.815,5.409c0.946,1.164 1.715,2.469 2.276,3.862c0.636,1.575 1.004,3.259 1.085,4.956c0.09,1.936 -0.19,3.886 -0.827,5.714c-0.741,2.13 -1.954,3.993 -3.496,5.622l-60.528,60.792c20.334,20.427 41.178,40.355 60.993,61.292c0.497,0.58 0.493,0.576 0.961,1.185c1.28,1.843 2.212,3.845 2.639,6.06c0.941,4.887 -0.625,10.051 -4.137,13.568c-1.069,1.071 -2.302,1.979 -3.64,2.683c-1.962,1.033 -4.072,1.552 -6.271,1.71c-0.726,0.018 -0.722,0.018 -1.442,0c-0.967,-0.07 -1.914,-0.184 -2.856,-0.415Z"/></g></svg>
