<svg viewBox="0 0 100 84" version="1.1" xmlns="http://www.w3.org/2000/svg" xmlns:xlink="http://www.w3.org/1999/xlink" xml:space="preserve"><path d="M71.429,41.667c0,-1.606 -0.558,-2.778 -1.675,-3.516l-28.571,-20.833c-1.153,-0.868 -2.362,-0.912 -3.627,-0.13c-1.228,0.781 -1.842,1.996 -1.842,3.645l0,41.667c0,1.649 0.614,2.865 1.842,3.646c0.595,0.347 1.172,0.521 1.73,0.521c0.744,0 1.376,-0.217 1.897,-0.651l28.571,-20.834c1.117,-0.738 1.675,-1.909 1.675,-3.515ZM100,41.667c0,4.166 -0.019,7.422 -0.056,9.765c-0.037,2.344 -0.195,5.306 -0.474,8.887c-0.279,3.581 -0.698,6.782 -1.256,9.603c-0.595,3.168 -1.878,5.838 -3.85,8.008c-1.972,2.17 -4.278,3.428 -6.92,3.776c-8.259,1.085 -20.74,1.627 -37.444,1.627c-16.704,0 -29.185,-0.542 -37.444,-1.627c-2.642,-0.348 -4.957,-1.606 -6.948,-3.776c-1.99,-2.17 -3.283,-4.84 -3.878,-8.008c-0.521,-2.821 -0.921,-6.022 -1.2,-9.603c-0.279,-3.581 -0.437,-6.543 -0.474,-8.887c-0.037,-2.343 -0.056,-5.599 -0.056,-9.765c0,-4.167 0.019,-7.422 0.056,-9.766c0.037,-2.344 0.195,-5.306 0.474,-8.887c0.279,-3.58 0.698,-6.781 1.256,-9.603c0.595,-3.168 1.878,-5.837 3.85,-8.007c1.972,-2.17 4.278,-3.429 6.92,-3.776c8.259,-1.085 20.74,-1.628 37.444,-1.628c16.704,0 29.185,0.543 37.444,1.628c2.642,0.347 4.957,1.606 6.948,3.776c1.99,2.17 3.283,4.839 3.878,8.007c0.521,2.822 0.921,6.023 1.2,9.603c0.279,3.581 0.437,6.543 0.474,8.887c0.037,2.344 0.056,5.599 0.056,9.766Z"/></svg>
